<svg width="23" height="23" viewBox="0 0 23 23" fill="none" xmlns="http://www.w3.org/2000/svg">
<path d="M16.8557 23.0001C15.9608 22.9935 15.0698 22.8812 14.2012 22.6655C11.2018 21.9418 8.1131 20.106 5.50553 17.4961C2.89797 14.8862 1.05985 11.797 0.336167 8.8004C-0.425851 5.64821 0.117631 2.9514 1.86478 1.20425L2.36364 0.705394C2.81625 0.253689 3.42958 0 4.06902 0C4.70847 0 5.3218 0.253689 5.77441 0.705394L8.64113 3.57154C9.09311 4.024 9.347 4.63739 9.347 5.27693C9.347 5.91647 9.09311 6.52985 8.64113 6.98231L6.94776 8.67512C7.75955 10.0996 8.86367 11.5252 10.1686 12.8302C11.4735 14.1351 12.9003 15.2398 14.3242 16.0516L16.017 14.3582C16.241 14.1342 16.5068 13.9565 16.7994 13.8353C17.092 13.714 17.4057 13.6516 17.7224 13.6516C18.0392 13.6516 18.3528 13.714 18.6454 13.8353C18.938 13.9565 19.2039 14.1342 19.4278 14.3582L22.2939 17.2244C22.746 17.6766 23 18.29 23 18.9295C23 19.569 22.746 20.1823 22.2939 20.6346L21.7945 21.1334C20.5628 22.3674 18.858 23.0001 16.8557 23.0001ZM4.06902 1.71512C3.97768 1.71467 3.88717 1.73245 3.80279 1.76742C3.7184 1.80239 3.64185 1.85385 3.5776 1.91879L3.07817 2.41764C1.76981 3.726 1.38766 5.85016 2.00208 8.39536C2.65254 11.0916 4.32703 13.8931 6.71664 16.2821C9.10624 18.6712 11.9072 20.3439 14.604 20.9967C17.1498 21.6111 19.2728 21.229 20.5811 19.9206L21.08 19.4217C21.2103 19.2913 21.2835 19.1144 21.2835 18.93C21.2835 18.7456 21.2103 18.5688 21.08 18.4383L18.2144 15.5722C18.084 15.4418 17.9071 15.3686 17.7227 15.3686C17.5383 15.3686 17.3614 15.4418 17.231 15.5722L15.0851 17.7181C14.9563 17.8469 14.7899 17.9314 14.6099 17.9594C14.43 17.9874 14.2457 17.9573 14.084 17.8737C12.3248 16.9641 10.5513 15.6397 8.95521 14.0436C7.35909 12.4474 6.03757 10.6751 5.12567 8.91596C5.04192 8.75423 5.01181 8.57005 5.03968 8.39007C5.06755 8.21009 5.15196 8.04364 5.2807 7.91481L7.42717 5.76892C7.55751 5.63848 7.63072 5.46162 7.63072 5.27721C7.63072 5.09281 7.55751 4.91595 7.42717 4.78551L4.56102 1.91879C4.49657 1.85397 4.4199 1.80258 4.33544 1.76762C4.25099 1.73266 4.16043 1.71482 4.06902 1.71512Z" fill="#0D6DC6"/>
<path d="M17.7692 12.6865C17.5416 12.6865 17.3233 12.5961 17.1624 12.4352C17.0015 12.2742 16.9111 12.056 16.9111 11.8284C16.9094 10.3229 16.3107 8.87964 15.2462 7.81509C14.1818 6.75054 12.7386 6.15167 11.2331 6.14985C11.0055 6.14985 10.7873 6.05944 10.6263 5.89851C10.4654 5.73758 10.375 5.51931 10.375 5.29172C10.375 5.06413 10.4654 4.84586 10.6263 4.68493C10.7873 4.524 11.0055 4.43359 11.2331 4.43359C15.3104 4.43359 18.6273 7.75169 18.6273 11.8284C18.6273 12.056 18.5369 12.2742 18.376 12.4352C18.2151 12.5961 17.9968 12.6865 17.7692 12.6865Z" fill="#0D6DC6"/>
<path d="M21.3962 12.6807C21.1686 12.6807 20.9504 12.5903 20.7894 12.4294C20.6285 12.2684 20.5381 12.0502 20.5381 11.8226C20.5381 6.69154 16.3619 2.51704 11.2331 2.51704C11.0055 2.51704 10.7873 2.42663 10.6263 2.2657C10.4654 2.10477 10.375 1.8865 10.375 1.65891C10.375 1.43132 10.4654 1.21305 10.6263 1.05212C10.7873 0.891191 11.0055 0.800781 11.2331 0.800781C17.3104 0.800781 22.2544 5.74532 22.2544 11.8226C22.2544 12.0502 22.1639 12.2684 22.003 12.4294C21.8421 12.5903 21.6238 12.6807 21.3962 12.6807Z" fill="#0D6DC6"/>
</svg>
