<svg width="36" height="31" viewBox="0 0 36 31" fill="none" xmlns="http://www.w3.org/2000/svg">
<path d="M34.4138 0.820747C33.7606 1.06847 1.48732 13.2964 0.852015 13.5372C0.312523 13.7416 0.192382 14.2423 0.833005 14.5179C1.59605 14.8465 8.04866 17.6262 8.04866 17.6262H8.0479L12.3262 19.4694C12.3262 19.4694 32.9276 3.20314 33.2078 2.98198C33.4877 2.76042 33.812 3.17616 33.6078 3.41366C33.4036 3.65239 18.645 20.8143 18.645 20.8143C18.6442 20.8148 18.6442 20.8152 18.6442 20.8156L17.7835 21.8445L18.9218 22.5034C18.9218 22.5034 27.7616 27.6198 28.3916 27.9844C28.9432 28.3037 29.6614 28.0384 29.8207 27.3001C30.0085 26.4294 35.2289 2.23923 35.3457 1.70127C35.4966 1.0002 35.067 0.573433 34.4138 0.820747ZM12.287 30.5131C12.287 31.018 12.5505 31.1582 12.9163 30.8009C13.393 30.3361 18.3321 25.5701 18.3321 25.5701L12.287 22.2071V30.5131Z" fill="#5BADF8"/>
</svg>
