<svg width="28" height="30" viewBox="0 0 28 30" fill="none" xmlns="http://www.w3.org/2000/svg">
<path d="M16.9172 0H11.0828C4.97172 0 0 4.86842 0 10.8521V15.9995C0 20.4556 2.7959 24.4604 7 26.0918V29.4287C7 29.6547 7.13586 29.8594 7.34692 29.9509C7.42268 29.9838 7.5033 30 7.58333 30C7.72518 30 7.86559 29.9492 7.97497 29.8522L11.3573 26.8516H16.9172C23.0283 26.8516 28 21.9832 28 15.9995V10.8521C28 4.86842 23.0283 0 16.9172 0Z" fill="#5E3389"/>
<path d="M26.8307 16.0014C26.8307 21.3552 22.3825 25.7109 16.9146 25.7109H11.1297C10.985 25.7109 10.8455 25.7634 10.7381 25.8588L8.16406 28.1423V25.6975C8.16406 25.4554 8.00825 25.2395 7.77498 25.1591C3.82097 23.79 1.16406 20.11 1.16406 16.0014V10.854C1.16406 5.50022 5.61227 1.14453 11.0802 1.14453H16.9146C22.3825 1.14453 26.8307 5.50022 26.8307 10.854V16.0014Z" fill="#5E3389"/>
<path d="M21.7095 17.4227L18.1241 15.142C17.7319 14.8926 17.2656 14.8078 16.8084 14.9004C16.351 14.9947 15.9582 15.2591 15.703 15.6446L15.5344 15.8985C13.9826 15.3964 12.2717 14.7547 11.2474 11.8508L11.6715 11.4898H11.6718C12.3995 10.87 12.4762 9.78535 11.843 9.07121L9.03825 5.91114C8.82691 5.67291 8.45833 5.64837 8.2151 5.8548L6.45428 7.35393C4.90935 8.66895 5.6314 10.6144 5.86867 11.2538C5.87921 11.2823 5.89203 11.3096 5.90713 11.3364C5.96836 11.4441 7.43097 13.9999 9.7925 16.356C12.1637 18.7216 16.445 20.9064 16.5763 20.97C17.0654 21.2808 17.6154 21.4297 18.1594 21.4297C19.1147 21.4297 20.0518 20.9711 20.6104 20.1298L21.881 18.2133C22.0564 17.9483 21.9795 17.5946 21.7095 17.4227Z" fill="white"/>
<path d="M19.6322 19.5047C19.1064 20.2975 18.0206 20.5229 17.1627 19.9812C17.12 19.9594 12.8672 17.7902 10.6253 15.5535C8.53004 13.463 7.13894 11.1409 6.94895 10.8168C6.48667 9.54805 6.56841 8.76807 7.21954 8.21406L8.54059 7.08984L10.9625 9.81866C11.1775 10.0608 11.1528 10.4151 10.9064 10.6248L10.1906 11.2341C10.0163 11.3825 9.94764 11.6174 10.0157 11.8333C11.2362 15.717 13.6091 16.4797 15.3418 17.037L15.5941 17.1185C15.8465 17.2022 16.1234 17.1068 16.2678 16.8881L16.6816 16.2643C16.7671 16.1354 16.8975 16.0478 17.049 16.0166C17.2011 15.9848 17.3567 16.0144 17.4885 16.098L20.5849 18.0675L19.6322 19.5047Z" fill="white"/>
<path d="M15.3292 9.28024C15.0187 9.19264 14.6963 9.36951 14.6083 9.67358C14.5203 9.97708 14.7 10.2929 15.0096 10.3793C15.8789 10.6215 16.5711 11.301 16.8163 12.153C16.8887 12.4046 17.1228 12.5692 17.3774 12.5692C17.4298 12.5692 17.4831 12.5625 17.5361 12.548C17.846 12.4621 18.0266 12.1469 17.9391 11.8428C17.5851 10.612 16.5847 9.63005 15.3292 9.28024Z" fill="white"/>
<path d="M19.7733 12.693C19.8257 12.693 19.879 12.6863 19.9319 12.6718C20.2421 12.5859 20.4224 12.2701 20.335 11.9666C19.6468 9.57705 17.7046 7.67064 15.2664 6.9911C14.9565 6.9035 14.6338 7.08148 14.5458 7.38443C14.4578 7.68794 14.6375 8.00372 14.9474 8.0902C16.9987 8.66151 18.6331 10.2661 19.2122 12.2768C19.2848 12.5285 19.5186 12.693 19.7733 12.693Z" fill="white"/>
<path d="M15.0089 4.33102C14.6984 4.24343 14.376 4.42029 14.288 4.72436C14.2 5.02787 14.3797 5.34364 14.6893 5.43013C18.1657 6.39867 20.9345 9.11687 21.9155 12.5235C21.9878 12.7752 22.222 12.9398 22.4766 12.9398C22.529 12.9398 22.5823 12.9331 22.6352 12.9186C22.9451 12.8326 23.1257 12.5169 23.0383 12.2134C21.9482 8.42784 18.8715 5.40782 15.0089 4.33102Z" fill="white"/>
</svg>
