<svg width="29" height="30" viewBox="0 0 29 30" fill="none" xmlns="http://www.w3.org/2000/svg">
<path d="M28.9762 14.1153C28.4832 5.41555 20.8427 -1.2893 12.0424 0.210671C5.98214 1.24565 1.12527 6.33052 0.182897 12.6003C-0.368031 16.2303 0.356903 19.6652 1.9372 22.5002L0.646851 27.465C0.356889 28.59 1.35723 29.61 2.43009 29.295L7.15649 27.945C9.30221 29.25 11.8104 30 14.4925 30C22.6695 30 29.4546 22.5451 28.9762 14.1153ZM21.5821 20.5802C21.4516 20.8502 21.2922 21.1052 21.0892 21.3452C20.7267 21.7502 20.3353 22.0502 19.9003 22.2302C19.4654 22.4252 18.987 22.5152 18.4795 22.5152C17.7401 22.5152 16.9427 22.3353 16.1163 21.9603C15.2754 21.5853 14.449 21.0902 13.6227 20.4752C12.7818 19.8452 11.9989 19.1402 11.245 18.3752C10.4911 17.5952 9.82411 16.7703 9.21519 15.9153C8.62077 15.0603 8.14236 14.2053 7.7944 13.3503C7.44645 12.4953 7.2725 11.6704 7.2725 10.8905C7.2725 10.3805 7.35947 9.88546 7.53345 9.43547C7.70743 8.97048 7.98292 8.5505 8.37437 8.17551C8.83831 7.69552 9.34571 7.47053 9.88214 7.47053C10.0851 7.47053 10.288 7.51551 10.4765 7.60551C10.665 7.69551 10.839 7.8305 10.9695 8.0255L12.6513 10.4854C12.7818 10.6804 12.8833 10.8454 12.9412 11.0104C13.0137 11.1754 13.0427 11.3254 13.0427 11.4754C13.0427 11.6554 12.9847 11.8354 12.8833 12.0154C12.7818 12.1954 12.6513 12.3754 12.4773 12.5553L11.9264 13.1553C11.8394 13.2453 11.8104 13.3353 11.8104 13.4553C11.8104 13.5153 11.8249 13.5753 11.8394 13.6353C11.8684 13.6953 11.8829 13.7403 11.8974 13.7853C12.0279 14.0403 12.2598 14.3553 12.5788 14.7453C12.9122 15.1353 13.2602 15.5403 13.6372 15.9303C14.0286 16.3353 14.4056 16.6953 14.797 17.0403C15.174 17.3703 15.4929 17.5952 15.7394 17.7302C15.7829 17.7452 15.8264 17.7752 15.8699 17.7902C15.9279 17.8202 15.9858 17.8202 16.0583 17.8202C16.1888 17.8202 16.2758 17.7752 16.3628 17.6852L16.9137 17.1153C17.1022 16.9203 17.2762 16.7853 17.4357 16.6953C17.6096 16.5903 17.7691 16.5303 17.9576 16.5303C18.1026 16.5303 18.2476 16.5603 18.407 16.6353C18.5665 16.7103 18.7405 16.8003 18.9145 16.9353L21.3211 18.7052C21.5096 18.8402 21.6401 19.0052 21.7271 19.1852C21.7996 19.3802 21.8431 19.5602 21.8431 19.7702C21.7561 20.0252 21.6981 20.3102 21.5821 20.5802Z" fill="#31CD4B"/>
</svg>
